# Tiled2Unity generated file. Do not modify by hand.
# Wavefront file for 'World-Map_mesh_0003.obj'

# Vertices (Count = 124)
v -103 -8 0
v -104 -8 0
v -104 -7 0
v -103 -7 0
v -105 -8 0
v -106 -8 0
v -106 -7 0
v -105 -7 0
v -110 -8 0
v -111 -8 0
v -111 -7 0
v -110 -7 0
v -111 -8 0
v -112 -8 0
v -112 -7 0
v -111 -7 0
v -112 -8 0
v -113 -8 0
v -113 -7 0
v -112 -7 0
v -113 -8 0
v -114 -8 0
v -114 -7 0
v -113 -7 0
v -114 -8 0
v -115 -8 0
v -115 -7 0
v -114 -7 0
v -37 -9 0
v -38 -9 0
v -38 -8 0
v -37 -8 0
v -38 -9 0
v -39 -9 0
v -39 -8 0
v -38 -8 0
v -39 -9 0
v -40 -9 0
v -40 -8 0
v -39 -8 0
v -40 -9 0
v -41 -9 0
v -41 -8 0
v -40 -8 0
v -43 -9 0
v -44 -9 0
v -44 -8 0
v -43 -8 0
v -46 -9 0
v -47 -9 0
v -47 -8 0
v -46 -8 0
v -52 -9 0
v -53 -9 0
v -53 -8 0
v -52 -8 0
v -62 -9 0
v -63 -9 0
v -63 -8 0
v -62 -8 0
v -19 -10 0
v -20 -10 0
v -20 -9 0
v -19 -9 0
v -20 -10 0
v -21 -10 0
v -21 -9 0
v -20 -9 0
v -21 -10 0
v -22 -10 0
v -22 -9 0
v -21 -9 0
v -25 -10 0
v -26 -10 0
v -26 -9 0
v -25 -9 0
v -33 -10 0
v -34 -10 0
v -34 -9 0
v -33 -9 0
v -71 -10 0
v -72 -10 0
v -72 -9 0
v -71 -9 0
v -73 -10 0
v -74 -10 0
v -74 -9 0
v -73 -9 0
v -89 -10 0
v -90 -10 0
v -90 -9 0
v -89 -9 0
v -91 -10 0
v -92 -10 0
v -92 -9 0
v -91 -9 0
v -92 -10 0
v -93 -10 0
v -93 -9 0
v -92 -9 0
v -97 -10 0
v -98 -10 0
v -98 -9 0
v -97 -9 0
v -8 -11 0
v -9 -11 0
v -9 -10 0
v -8 -10 0
v -10 -11 0
v -11 -11 0
v -11 -10 0
v -10 -10 0
v -11 -11 0
v -12 -11 0
v -12 -10 0
v -11 -10 0
v -12 -11 0
v -13 -11 0
v -13 -10 0
v -12 -10 0
v -13 -11 0
v -14 -11 0
v -14 -10 0
v -13 -10 0

# Texture cooridinates (Count = 8)
vt 0.4001221 0.900122
vt 0.4998779 0.900122
vt 0.4998779 0.9998779
vt 0.4001221 0.9998779
vt 0.4001221 0.8001221
vt 0.4998779 0.8001221
vt 0.4998779 0.8998779
vt 0.4001221 0.8998779

# Normal
vn 0 0 -1

# Mesh description
g World-Map_mesh_0003

# Faces
f 1/1/1 2/2/1 3/3/1 4/4/1
f 5/1/1 6/2/1 7/3/1 8/4/1
f 9/5/1 10/6/1 11/7/1 12/8/1
f 13/5/1 14/6/1 15/7/1 16/8/1
f 17/5/1 18/6/1 19/7/1 20/8/1
f 21/1/1 22/2/1 23/3/1 24/4/1
f 25/5/1 26/6/1 27/7/1 28/8/1
f 29/1/1 30/2/1 31/3/1 32/4/1
f 33/5/1 34/6/1 35/7/1 36/8/1
f 37/1/1 38/2/1 39/3/1 40/4/1
f 41/5/1 42/6/1 43/7/1 44/8/1
f 45/1/1 46/2/1 47/3/1 48/4/1
f 49/1/1 50/2/1 51/3/1 52/4/1
f 53/1/1 54/2/1 55/3/1 56/4/1
f 57/1/1 58/2/1 59/3/1 60/4/1
f 61/1/1 62/2/1 63/3/1 64/4/1
f 65/5/1 66/6/1 67/7/1 68/8/1
f 69/5/1 70/6/1 71/7/1 72/8/1
f 73/1/1 74/2/1 75/3/1 76/4/1
f 77/1/1 78/2/1 79/3/1 80/4/1
f 81/1/1 82/2/1 83/3/1 84/4/1
f 85/5/1 86/6/1 87/7/1 88/8/1
f 89/1/1 90/2/1 91/3/1 92/4/1
f 93/5/1 94/6/1 95/7/1 96/8/1
f 97/5/1 98/6/1 99/7/1 100/8/1
f 101/1/1 102/2/1 103/3/1 104/4/1
f 105/1/1 106/2/1 107/3/1 108/4/1
f 109/5/1 110/6/1 111/7/1 112/8/1
f 113/5/1 114/6/1 115/7/1 116/8/1
f 117/1/1 118/2/1 119/3/1 120/4/1
f 121/5/1 122/6/1 123/7/1 124/8/1

